<?xml version="1.0" encoding="UTF-8" standalone="no"?>
<svg
   xmlns:dc="http://purl.org/dc/elements/1.1/"
   xmlns:cc="http://creativecommons.org/ns#"
   xmlns:rdf="http://www.w3.org/1999/02/22-rdf-syntax-ns#"
   xmlns:svg="http://www.w3.org/2000/svg"
   xmlns="http://www.w3.org/2000/svg"
   xmlns:sodipodi="http://sodipodi.sourceforge.net/DTD/sodipodi-0.dtd"
   xmlns:inkscape="http://www.inkscape.org/namespaces/inkscape"
   viewBox="0 0 4096 4096"
   version="1.1"
   id="svg22"
   sodipodi:docname="linktree-logo.svg"
   width="4096"
   height="4096"
   inkscape:export-filename="G:\Users\suitedoalex\sites\linktree-logo-0.png"
   inkscape:export-xdpi="96"
   inkscape:export-ydpi="96"
   inkscape:version="0.92.2 (5c3e80d, 2017-08-06)">
  <metadata
     id="metadata28">
    <rdf:RDF>
      <cc:Work
         rdf:about="">
        <dc:format>image/svg+xml</dc:format>
        <dc:type
           rdf:resource="http://purl.org/dc/dcmitype/StillImage" />
        <dc:title></dc:title>
      </cc:Work>
    </rdf:RDF>
  </metadata>
  <defs
     id="defs26" />
  <sodipodi:namedview
     pagecolor="#ffffff"
     bordercolor="#666666"
     borderopacity="1"
     objecttolerance="10"
     gridtolerance="10"
     guidetolerance="10"
     inkscape:pageopacity="0"
     inkscape:pageshadow="2"
     inkscape:window-width="1600"
     inkscape:window-height="837"
     id="namedview24"
     showgrid="false"
     inkscape:zoom="0.10774346"
     inkscape:cx="-46.596387"
     inkscape:cy="2170.5522"
     inkscape:window-x="-8"
     inkscape:window-y="-8"
     inkscape:window-maximized="1"
     inkscape:current-layer="svg22" />
  <path
     d="m 1250.6396,2351.3087 v -535.2128 c 0,-7.7194 5.1463,-15.4388 15.4388,-15.4388 h 48.8896 c 7.7194,0 15.4388,5.1463 15.4388,15.4388 v 537.7859 c 0,7.7194 -5.1463,15.4389 -15.4645,15.4389 h -48.8639 c -7.7194,-2.5732 -15.4388,-7.7195 -15.4388,-18.012 z"
     id="path2"
     inkscape:connector-curvature="0"
     style="fill:#3d3b3c;stroke-width:25.73138428"
     inkscape:export-filename="G:\Users\suitedoalex\sites\linktree-logo-4.png"
     inkscape:export-xdpi="10.954708"
     inkscape:export-ydpi="10.954708" />
  <path
     d="m 1435.9055,1864.9855 v -51.4627 c 0,-7.7194 5.1463,-15.4388 15.4388,-15.4388 h 54.0359 c 7.7194,0 15.4389,5.1462 15.4389,15.4388 v 51.4627 c 0,7.7195 -5.1463,15.4389 -15.4389,15.4389 h -54.0359 c -10.2925,0 -15.4388,-5.1463 -15.4388,-15.4389 z m 2.5731,486.3232 v -380.8245 c 0,-7.7194 7.7194,-15.4388 15.4389,-15.4388 h 46.3165 c 7.7194,0 15.4388,5.1463 15.4388,15.4388 v 383.3976 c 0,7.7194 -5.1206,15.4389 -15.4388,15.4389 h -46.3165 c -7.7195,-2.5732 -15.4389,-7.7195 -15.4389,-18.012 z"
     id="path4"
     inkscape:connector-curvature="0"
     style="fill:#3d3b3c;stroke-width:25.73138428"
     inkscape:export-filename="G:\Users\suitedoalex\sites\linktree-logo-4.png"
     inkscape:export-xdpi="10.954708"
     inkscape:export-ydpi="10.954708" />
  <path
     d="m 1621.1715,2351.3087 v -380.8245 c 0,-7.7194 5.1462,-15.4388 15.4388,-15.4388 h 46.3165 c 7.7194,0 15.4388,5.1463 15.4388,15.4388 v 25.7314 h 2.5731 c 15.4389,-20.5851 41.1703,-38.5971 79.7673,-48.8896 h 2.5732 c 59.1821,-7.7194 105.4986,5.1463 136.3763,38.597 25.7314,28.3046 41.1959,64.3285 41.1959,113.1924 v 254.715 c 0,7.7194 -5.1462,15.4645 -15.4645,15.4645 h -46.3165 c -7.7194,0 -15.4388,-5.1205 -15.4388,-15.4645 V 2119.649 c 0,-69.449 -28.3303,-105.5244 -87.4867,-105.5244 -28.3046,0 -54.0359,7.7195 -72.0479,25.7314 -18.012,18.012 -25.7314,41.196 -25.7314,69.4748 v 244.4481 c 0,7.7194 -5.1463,15.4388 -15.4646,15.4388 h -46.3164 c -10.2669,-2.4702 -15.4131,-7.6165 -15.4131,-17.909 z"
     id="path6"
     inkscape:connector-curvature="0"
     style="fill:#3d3b3c;stroke-width:25.73138428"
     inkscape:export-filename="G:\Users\suitedoalex\sites\linktree-logo-4.png"
     inkscape:export-xdpi="10.954708"
     inkscape:export-ydpi="10.954708" />
  <path
     d="m 2050.8856,2351.3087 v -535.2128 c 0,-7.7194 5.1462,-15.4388 15.4388,-15.4388 h 46.3165 c 7.7194,0 15.4388,5.1463 15.4388,15.4388 v 324.2154 h 2.5731 l 162.1078,-177.5465 c 0,-5.1463 5.1462,-7.7194 7.7194,-7.7194 h 59.1822 c 12.8656,0 18.0119,15.4388 10.2668,23.1582 l -118.3387,133.8032 c -5.1462,5.1463 -5.1462,12.8657 0,18.012 l 144.0958,216.1436 c 5.1463,10.2668 0,23.1325 -12.8657,23.1325 h -51.4628 c -5.1205,0 -10.2411,-2.5988 -12.8657,-5.1205 l -131.23,-195.5585 h -2.5732 l -54.0359,59.1822 c -2.5731,2.6246 -2.5731,5.1462 -2.5731,10.2925 v 118.3644 c 0,7.7194 -5.1463,15.4388 -15.4388,15.4388 h -46.3165 c -7.7194,-5.1463 -15.4388,-10.2926 -15.4388,-20.5851 z"
     id="path8"
     inkscape:connector-curvature="0"
     style="fill:#3d3b3c;stroke-width:25.73138428"
     inkscape:export-filename="G:\Users\suitedoalex\sites\linktree-logo-4.png"
     inkscape:export-xdpi="10.954708"
     inkscape:export-ydpi="10.954708" />
  <path
     d="M 2490.8922,2238.0906 V 2021.947 h -46.3165 c -7.7194,0 -15.4903,-5.1463 -15.4903,-15.4388 v -36.024 c 2.6246,-7.7194 7.7709,-15.4388 15.4903,-15.4388 h 48.8896 v -84.9136 c 0,-7.7194 5.1206,-15.4388 15.4646,-15.4388 h 43.7434 c 7.7194,0 15.4388,5.1463 15.4388,15.4388 v 84.9136 h 87.4867 c 7.7194,0 15.4388,5.1463 15.4388,15.4388 v 36.024 c 0,7.7194 -5.1205,15.4388 -15.4388,15.4388 h -87.4867 v 208.4242 c 0,23.1325 2.5731,38.5971 10.2925,48.8639 7.6937,10.3183 20.5594,15.4645 41.1445,15.4645 h 18.012 c 7.7194,0 15.4388,5.1463 15.4388,15.4389 v 43.7433 c 0,7.7194 -5.1205,15.4389 -15.4388,15.4389 h -23.1582 c -43.7177,0 -74.5696,-10.2411 -95.1804,-30.852 -18.0377,-25.7571 -28.3303,-56.6347 -28.3303,-100.3781 z"
     id="path10"
     inkscape:connector-curvature="0"
     style="fill:#3d3b3c;stroke-width:25.73138428"
     inkscape:export-filename="G:\Users\suitedoalex\sites\linktree-logo-4.png"
     inkscape:export-xdpi="10.954708"
     inkscape:export-ydpi="10.954708" />
  <path
     d="m 2753.3523,2351.3087 v -380.8245 c 0,-7.7194 5.1463,-15.4388 12.8657,-15.4388 h 43.7434 c 7.7194,0 15.4388,5.1463 15.4388,15.4388 v 30.8777 h 2.5731 c 7.7452,-15.4389 20.6109,-28.3045 35.9982,-38.5971 15.4646,-10.2925 30.8777,-12.8657 48.8897,-12.8657 7.7194,0 17.9605,0 25.7314,2.5732 7.7451,2.5731 10.3182,10.2925 10.3182,15.4388 l -7.7194,46.3165 c -2.5731,7.7194 -10.2668,12.8657 -18.0119,10.2925 -5.1206,0 -10.2411,-2.5731 -17.9863,-2.5731 -48.8639,0 -74.5953,33.4508 -74.5953,100.3524 v 226.4362 c 0,7.7194 -5.1462,15.4645 -15.4645,15.4645 h -48.9154 c -7.7194,2.5474 -12.8657,-2.5989 -12.8657,-12.8914 z"
     id="path12"
     inkscape:connector-curvature="0"
     style="fill:#3d3b3c;stroke-width:25.73138428"
     inkscape:export-filename="G:\Users\suitedoalex\sites\linktree-logo-4.png"
     inkscape:export-xdpi="10.954708"
     inkscape:export-ydpi="10.954708" />
  <path
     d="m 3296.2845,2232.9443 33.4765,25.7314 c 5.1206,5.1463 7.7452,12.8657 2.5989,18.012 -15.4646,23.1582 -35.9982,43.7433 -59.1822,61.7553 -28.356,17.9862 -64.3284,28.3045 -102.9255,28.3045 -56.609,0 -102.9255,-20.5851 -138.9495,-59.1822 -36.0239,-38.597 -54.0359,-92.6587 -54.0359,-156.9871 0,-66.9274 17.9863,-118.3901 54.0359,-156.9872 36.0497,-38.5971 79.7673,-59.1822 136.4021,-59.1822 54.0616,0 100.3267,20.5851 133.7775,59.1822 33.4765,38.5971 51.4627,92.6587 51.4627,159.5346 v 7.7709 c 0,7.7194 -5.1205,15.4388 -15.4388,15.4388 h -267.6064 c -7.7194,0 -15.4388,7.7451 -15.4388,15.4903 2.5731,28.3045 12.8657,54.0359 28.3045,74.5695 20.6108,23.1583 46.3422,36.024 82.3404,36.024 18.012,0 33.4508,-2.5732 46.3165,-7.7195 12.8657,-5.1462 25.7314,-12.8656 33.4765,-20.5851 10.2669,-10.2925 15.4646,-18.0119 20.5594,-23.1582 2.6246,-2.5731 5.172,-7.7194 7.7709,-10.2926 5.0433,-10.2925 15.3359,-12.8656 23.0553,-7.7194 z m -241.875,-120.9375 h 221.2899 c -2.5731,-30.8519 -10.2668,-59.1822 -28.3045,-79.7673 -18.012,-23.1582 -46.368,-33.4508 -82.3404,-33.4508 -33.4508,0 -61.7554,12.8657 -79.8188,36.024 -20.5336,23.1582 -30.8262,48.8896 -30.8262,77.1941 z"
     id="path14"
     inkscape:connector-curvature="0"
     style="fill:#3d3b3c;stroke-width:25.73138428"
     inkscape:export-filename="G:\Users\suitedoalex\sites\linktree-logo-4.png"
     inkscape:export-xdpi="10.954708"
     inkscape:export-ydpi="10.954708" />
  <path
     d="m 3744.0106,2232.9443 33.4508,25.7314 c 5.1463,5.1463 7.7194,12.8657 2.5989,18.012 -15.4646,23.1582 -35.9983,43.7433 -59.208,61.7553 -28.3045,17.9862 -64.3284,28.3045 -102.9255,28.3045 -56.5833,0 -102.9255,-20.5851 -138.898,-59.1822 -36.0239,-38.597 -54.0874,-92.6587 -54.0874,-156.9871 0,-66.9274 18.012,-118.3901 54.0874,-156.9872 35.9725,-38.5971 79.7673,-59.1822 136.3763,-59.1822 54.0617,0 100.3267,20.5851 133.8032,59.1822 33.4508,38.5971 51.4628,92.6587 51.4628,159.5346 v 7.7709 c 0,7.7194 -5.1463,15.4388 -15.4903,15.4388 h -267.6064 c -7.7709,0 -15.4646,7.7451 -15.4646,15.4903 2.5989,28.3045 12.8657,54.0359 28.3303,74.5695 20.5851,23.1583 46.3165,36.024 82.289,36.024 18.0377,0 33.5022,-2.5732 46.3679,-7.7195 12.8657,-5.1462 25.7314,-12.8656 33.4508,-20.5851 10.2411,-10.2925 15.4388,-18.0119 20.5851,-23.1582 2.5989,-2.5731 5.1463,-7.7194 7.7194,-10.2926 5.1463,-10.2925 15.4389,-12.8656 23.1583,-7.7194 z m -241.875,-120.9375 h 221.3413 c -2.6246,-30.8519 -10.2925,-59.1822 -28.3559,-79.7673 -17.9863,-23.1582 -46.3165,-33.4508 -82.3147,-33.4508 -33.4766,0 -61.7296,12.8657 -79.7931,36.024 -20.5851,23.1582 -30.8776,48.8896 -30.8776,77.1941 z"
     id="path16"
     inkscape:connector-curvature="0"
     style="fill:#3d3b3c;stroke-width:25.73138428"
     inkscape:export-filename="G:\Users\suitedoalex\sites\linktree-logo-4.png"
     inkscape:export-xdpi="10.954708"
     inkscape:export-ydpi="10.954708" />
  <path
     d="m 579.05049,1741.4749 c -12.8657,-23.1582 -46.31649,-23.1582 -59.18219,0 l -221.28989,401.4096 c -10.29255,20.5851 5.14628,43.7433 28.30452,43.7433 h 149.24202 v 151.8152 c 0,15.4388 12.86569,28.3045 28.30452,28.3045 h 87.48671 c 15.43883,0 28.30452,-12.8657 28.30452,-28.3045 v -151.8152 h -41.17021 c -18.01197,0 -30.87766,-12.8657 -33.4508,-28.3045 0,-5.1463 0,-10.2925 2.57314,-15.4903 L 671.68347,1918.97 Z"
     id="path18"
     inkscape:connector-curvature="0"
     style="fill:#39e09b;stroke-width:25.73138428"
     inkscape:export-filename="G:\Users\suitedoalex\sites\linktree-logo-4.png"
     inkscape:export-xdpi="10.954708"
     inkscape:export-ydpi="10.954708" />
  <path
     d="m 774.609,1741.4749 c 12.86569,-23.1582 46.31649,-23.1582 59.18218,0 l 221.28992,401.4096 c 10.2925,20.5851 -5.1463,43.7433 -28.3046,43.7433 H 880.10767 v 151.8152 c 0,15.4388 -12.86569,28.3045 -28.33025,28.3045 h -92.60725 c -15.43883,0 -28.30452,-12.8657 -28.30452,-28.3045 v -151.8152 h 41.17021 c 18.01197,0 30.87766,-12.8657 33.4508,-28.3045 0,-5.1463 0,-10.2925 -2.57314,-15.4903 L 679.40288,1919.0215 Z"
     id="path20"
     inkscape:connector-curvature="0"
     style="fill:#28bf7b;stroke-width:25.73138428"
     inkscape:export-filename="G:\Users\suitedoalex\sites\linktree-logo-4.png"
     inkscape:export-xdpi="10.954708"
     inkscape:export-ydpi="10.954708" />
</svg>
