<?xml version="1.0" standalone="no"?>
<!DOCTYPE svg PUBLIC "-//W3C//DTD SVG 20010904//EN"
 "http://www.w3.org/TR/2001/REC-SVG-20010904/DTD/svg10.dtd">
<svg version="1.0" xmlns="http://www.w3.org/2000/svg"
 width="384.000000pt" height="384.000000pt" viewBox="0 0 384.000000 384.000000"
 preserveAspectRatio="xMidYMid meet">
<metadata>
Created by potrace 1.11, written by Peter Selinger 2001-2013
</metadata>
<g transform="translate(0.000000,384.000000) scale(0.100000,-0.100000)"
fill="#000000" stroke="none">
<path d="M1605 3741 c-134 -25 -211 -46 -325 -88 -645 -240 -1108 -815 -1205
-1494 -19 -133 -19 -384 0 -516 97 -685 556 -1252 1208 -1494 334 -124 741
-144 1099 -53 652 164 1178 690 1342 1342 91 358 71 765 -53 1099 -225 608
-740 1055 -1376 1194 -144 31 -543 37 -690 10z m615 -346 c201 -44 411 -137
573 -252 105 -74 266 -235 340 -340 118 -165 203 -359 249 -564 20 -90 23
-131 23 -309 0 -178 -3 -219 -23 -309 -46 -205 -132 -399 -249 -564 -74 -104
-236 -266 -340 -340 -165 -117 -359 -203 -564 -249 -90 -20 -131 -23 -309 -23
-178 0 -219 3 -309 23 -205 46 -399 131 -564 249 -105 74 -266 235 -340 340
-118 166 -210 378 -254 583 -26 121 -26 459 0 580 64 298 202 554 412 765 226
225 492 363 815 421 104 18 438 12 540 -11z"/>
<path d="M1051 2444 c-162 -43 -296 -190 -332 -363 -18 -87 -7 -223 25 -301
124 -306 516 -400 759 -182 20 19 37 40 37 46 0 6 -23 29 -50 49 l-51 38 -50
-45 c-66 -59 -129 -80 -225 -74 -162 11 -275 116 -305 286 -23 130 22 264 117
351 117 107 305 109 416 4 l26 -25 51 38 c28 21 51 43 51 49 0 35 -125 114
-210 134 -64 15 -196 12 -259 -5z"/>
<path d="M1721 2436 c-44 -25 -65 -92 -41 -137 13 -24 61 -49 94 -49 14 0 40
13 58 29 86 77 -10 213 -111 157z m98 -41 c23 -22 18 -75 -8 -97 -31 -25 -57
-23 -86 7 -32 31 -32 59 1 91 27 28 64 27 93 -1z"/>
<path d="M2097 2303 c-4 -3 -7 -44 -7 -90 l0 -83 -65 0 -65 0 0 -55 0 -55 64
0 64 0 4 -212 c3 -241 8 -257 80 -298 34 -19 51 -22 124 -18 97 4 106 10 102
78 l-3 45 -52 -3 c-113 -8 -123 13 -123 243 l0 165 85 0 85 0 0 55 0 55 -85 0
-85 0 0 90 0 90 -58 0 c-32 0 -62 -3 -65 -7z"/>
<path d="M1702 1818 l3 -313 63 -3 62 -3 0 316 0 315 -65 0 -65 0 2 -312z"/>
<path d="M2503 2113 c2 -10 59 -151 126 -312 l122 -295 -26 -73 c-18 -49 -37
-82 -58 -99 -28 -24 -37 -26 -88 -20 l-56 5 -7 -52 c-8 -67 5 -77 96 -77 102
0 153 30 196 115 19 38 322 810 322 820 0 3 -31 5 -69 5 l-68 0 -83 -230 c-45
-126 -85 -228 -89 -226 -3 2 -44 106 -91 230 l-85 226 -74 0 c-65 0 -73 -2
-68 -17z"/>
</g>
</svg>
